<svg width="1024" height="1024" viewBox="0 0 1024 1024" fill="none" xmlns="http://www.w3.org/2000/svg">
<path fill-rule="evenodd" clip-rule="evenodd" d="M512 900.414C726.515 900.414 900.414 726.515 900.414 512C900.414 297.485 726.515 123.586 512 123.586C297.485 123.586 123.586 297.485 123.586 512C123.586 726.515 297.485 900.414 512 900.414ZM512 935.724C746.016 935.724 935.724 746.016 935.724 512C935.724 277.984 746.016 88.2759 512 88.2759C277.984 88.2759 88.2759 277.984 88.2759 512C88.2759 746.016 277.984 935.724 512 935.724Z" fill="#BFBFBF"/>
<path d="M512 229.517L494.345 247.172L477.789 528.618C477.193 538.759 485.256 547.31 495.414 547.31L776.828 529.655L794.483 512L776.828 494.345L543.279 478.775L529.655 247.172L512 229.517Z" fill="#BFBFBF"/>
</svg>
